/* XPM */
static char *brick[] = {
"16 16 2 1",
". c #B04020",
"# c #802010",
"................",
".##############.",
".##############.",
".##############.",
".##############.",
"................",
"................",
"................",
".##############.",
".##############.",
".##############.",
".##############.",
"................",
"................",
"................",
"................"
};
