/* XPM */
static char *wall[] = {
"16 16 2 1",
". c #777777",
"# c #444444",
"................",
".##############.",
".##############.",
".##############.",
".##############.",
".##############.",
".##############.",
".##############.",
".##############.",
".##############.",
".##############.",
".##############.",
".##############.",
".##############.",
".##############.",
"................"
};
