/* XPM */
static char *wood[] = {
"16 16 2 1",
". c #8B5A2B",
"# c #5C3A1A",
"################",
"################",
"################",
"################",
"................",
"................",
"................",
"................",
"################",
"################",
"################",
"################",
"................",
"................",
"................",
"................"
};
